<mxfile host="app.diagrams.net" modified="2024-04-14T10:57:06.260Z" agent="Mozilla/5.0 (Macintosh; Intel Mac OS X 10.15; rv:124.0) Gecko/20100101 Firefox/124.0" etag="B832mM4LCL8LPL7_ZXAq" version="24.2.2" type="github">
  <diagram name="第 1 页" id="7-IvhbL-tAjNs4ZwSBu0">
    <mxGraphModel dx="1414" dy="635" grid="1" gridSize="10" guides="1" tooltips="1" connect="1" arrows="1" fold="1" page="1" pageScale="1" pageWidth="827" pageHeight="1169" math="0" shadow="0">
      <root>
        <mxCell id="0" />
        <mxCell id="1" parent="0" />
        <mxCell id="EQPceHYi28PG9tVidrIA-15" value="" style="rounded=0;whiteSpace=wrap;html=1;" vertex="1" parent="1">
          <mxGeometry x="120" y="170" width="450" height="250" as="geometry" />
        </mxCell>
        <mxCell id="EQPceHYi28PG9tVidrIA-12" value="" style="rounded=0;whiteSpace=wrap;html=1;" vertex="1" parent="1">
          <mxGeometry x="130" y="270" width="430" height="60" as="geometry" />
        </mxCell>
        <mxCell id="EQPceHYi28PG9tVidrIA-11" value="" style="rounded=0;whiteSpace=wrap;html=1;" vertex="1" parent="1">
          <mxGeometry x="130" y="350" width="430" height="60" as="geometry" />
        </mxCell>
        <mxCell id="EQPceHYi28PG9tVidrIA-1" value="Memory Cache" style="rounded=0;whiteSpace=wrap;html=1;" vertex="1" parent="1">
          <mxGeometry x="130" y="210" width="430" height="40" as="geometry" />
        </mxCell>
        <mxCell id="EQPceHYi28PG9tVidrIA-2" value="MemoryPart" style="rounded=0;whiteSpace=wrap;html=1;" vertex="1" parent="1">
          <mxGeometry x="190" y="280" width="100" height="40" as="geometry" />
        </mxCell>
        <mxCell id="EQPceHYi28PG9tVidrIA-3" value="MemoryPart" style="rounded=0;whiteSpace=wrap;html=1;" vertex="1" parent="1">
          <mxGeometry x="310" y="280" width="100" height="40" as="geometry" />
        </mxCell>
        <mxCell id="EQPceHYi28PG9tVidrIA-4" value="MemoryPart" style="rounded=0;whiteSpace=wrap;html=1;" vertex="1" parent="1">
          <mxGeometry x="450" y="280" width="100" height="40" as="geometry" />
        </mxCell>
        <mxCell id="EQPceHYi28PG9tVidrIA-5" value="&lt;font style=&quot;font-size: 15px;&quot;&gt;&lt;b&gt;...&lt;/b&gt;&lt;/font&gt;" style="text;html=1;align=center;verticalAlign=middle;whiteSpace=wrap;rounded=0;" vertex="1" parent="1">
          <mxGeometry x="400" y="285" width="60" height="30" as="geometry" />
        </mxCell>
        <mxCell id="EQPceHYi28PG9tVidrIA-7" value="FilePart" style="rounded=0;whiteSpace=wrap;html=1;" vertex="1" parent="1">
          <mxGeometry x="190" y="360" width="100" height="40" as="geometry" />
        </mxCell>
        <mxCell id="EQPceHYi28PG9tVidrIA-8" value="FilePart" style="rounded=0;whiteSpace=wrap;html=1;" vertex="1" parent="1">
          <mxGeometry x="310" y="360" width="100" height="40" as="geometry" />
        </mxCell>
        <mxCell id="EQPceHYi28PG9tVidrIA-9" value="FilePart" style="rounded=0;whiteSpace=wrap;html=1;" vertex="1" parent="1">
          <mxGeometry x="450" y="360" width="100" height="40" as="geometry" />
        </mxCell>
        <mxCell id="EQPceHYi28PG9tVidrIA-10" value="&lt;font style=&quot;font-size: 15px;&quot;&gt;&lt;b&gt;...&lt;/b&gt;&lt;/font&gt;" style="text;html=1;align=center;verticalAlign=middle;whiteSpace=wrap;rounded=0;" vertex="1" parent="1">
          <mxGeometry x="400" y="365" width="60" height="30" as="geometry" />
        </mxCell>
        <mxCell id="EQPceHYi28PG9tVidrIA-13" value="Memory" style="text;html=1;align=center;verticalAlign=middle;whiteSpace=wrap;rounded=0;" vertex="1" parent="1">
          <mxGeometry x="130" y="285" width="60" height="30" as="geometry" />
        </mxCell>
        <mxCell id="EQPceHYi28PG9tVidrIA-14" value="Disk" style="text;html=1;align=center;verticalAlign=middle;whiteSpace=wrap;rounded=0;" vertex="1" parent="1">
          <mxGeometry x="130" y="365" width="60" height="30" as="geometry" />
        </mxCell>
        <mxCell id="EQPceHYi28PG9tVidrIA-16" value="Storage" style="text;html=1;align=center;verticalAlign=middle;whiteSpace=wrap;rounded=0;" vertex="1" parent="1">
          <mxGeometry x="340" y="170" width="60" height="40" as="geometry" />
        </mxCell>
        <mxCell id="EQPceHYi28PG9tVidrIA-17" value="" style="rounded=0;whiteSpace=wrap;html=1;" vertex="1" parent="1">
          <mxGeometry x="120" y="600" width="450" height="180" as="geometry" />
        </mxCell>
        <mxCell id="EQPceHYi28PG9tVidrIA-18" value="" style="rounded=0;whiteSpace=wrap;html=1;" vertex="1" parent="1">
          <mxGeometry x="130" y="520" width="430" height="60" as="geometry" />
        </mxCell>
        <mxCell id="EQPceHYi28PG9tVidrIA-19" value="" style="rounded=0;whiteSpace=wrap;html=1;" vertex="1" parent="1">
          <mxGeometry x="130" y="710" width="430" height="60" as="geometry" />
        </mxCell>
        <mxCell id="EQPceHYi28PG9tVidrIA-20" value="Memory Cache" style="rounded=0;whiteSpace=wrap;html=1;" vertex="1" parent="1">
          <mxGeometry x="130" y="650" width="430" height="40" as="geometry" />
        </mxCell>
        <mxCell id="EQPceHYi28PG9tVidrIA-21" value="Memtable" style="rounded=0;whiteSpace=wrap;html=1;" vertex="1" parent="1">
          <mxGeometry x="190" y="530" width="100" height="40" as="geometry" />
        </mxCell>
        <mxCell id="EQPceHYi28PG9tVidrIA-22" value="Memtable" style="rounded=0;whiteSpace=wrap;html=1;" vertex="1" parent="1">
          <mxGeometry x="310" y="530" width="100" height="40" as="geometry" />
        </mxCell>
        <mxCell id="EQPceHYi28PG9tVidrIA-23" value="Memtable" style="rounded=0;whiteSpace=wrap;html=1;" vertex="1" parent="1">
          <mxGeometry x="450" y="530" width="100" height="40" as="geometry" />
        </mxCell>
        <mxCell id="EQPceHYi28PG9tVidrIA-24" value="&lt;font style=&quot;font-size: 15px;&quot;&gt;&lt;b&gt;...&lt;/b&gt;&lt;/font&gt;" style="text;html=1;align=center;verticalAlign=middle;whiteSpace=wrap;rounded=0;" vertex="1" parent="1">
          <mxGeometry x="400" y="535" width="60" height="30" as="geometry" />
        </mxCell>
        <mxCell id="EQPceHYi28PG9tVidrIA-25" value="FilePart" style="rounded=0;whiteSpace=wrap;html=1;" vertex="1" parent="1">
          <mxGeometry x="190" y="720" width="100" height="40" as="geometry" />
        </mxCell>
        <mxCell id="EQPceHYi28PG9tVidrIA-26" value="FilePart" style="rounded=0;whiteSpace=wrap;html=1;" vertex="1" parent="1">
          <mxGeometry x="310" y="720" width="100" height="40" as="geometry" />
        </mxCell>
        <mxCell id="EQPceHYi28PG9tVidrIA-27" value="FilePart" style="rounded=0;whiteSpace=wrap;html=1;" vertex="1" parent="1">
          <mxGeometry x="450" y="720" width="100" height="40" as="geometry" />
        </mxCell>
        <mxCell id="EQPceHYi28PG9tVidrIA-28" value="&lt;font style=&quot;font-size: 15px;&quot;&gt;&lt;b&gt;...&lt;/b&gt;&lt;/font&gt;" style="text;html=1;align=center;verticalAlign=middle;whiteSpace=wrap;rounded=0;" vertex="1" parent="1">
          <mxGeometry x="400" y="725" width="60" height="30" as="geometry" />
        </mxCell>
        <mxCell id="EQPceHYi28PG9tVidrIA-29" value="Memory" style="text;html=1;align=center;verticalAlign=middle;whiteSpace=wrap;rounded=0;" vertex="1" parent="1">
          <mxGeometry x="130" y="535" width="60" height="30" as="geometry" />
        </mxCell>
        <mxCell id="EQPceHYi28PG9tVidrIA-30" value="Disk" style="text;html=1;align=center;verticalAlign=middle;whiteSpace=wrap;rounded=0;" vertex="1" parent="1">
          <mxGeometry x="130" y="725" width="60" height="30" as="geometry" />
        </mxCell>
        <mxCell id="EQPceHYi28PG9tVidrIA-31" value="Storage" style="text;html=1;align=center;verticalAlign=middle;whiteSpace=wrap;rounded=0;" vertex="1" parent="1">
          <mxGeometry x="315" y="610" width="60" height="30" as="geometry" />
        </mxCell>
      </root>
    </mxGraphModel>
  </diagram>
</mxfile>
